# xmcd
# 
# Track frame offsets:
#     150
#     18032
#     31545
#     48225
#     63125
#     75740
#     90107
#     106697
#     117202
#     138247
#     154377
#     165822
#     180622
#     196152
#     214502
#     230005
#     247667
#     261717
#     278687
#     299552
#     312967
# 
# Disc length: 4412
# 
# Revision: 7
# Processed by: cddbd v1.5.2PL0 Copyright (c) Steve Scherf et al.
# Submitted via: fre:ac v1.0.31
# 
DISCID=04113a15
DTITLE=Emmylou Harris - Portraits Disc 2
DYEAR=1996
DGENRE=Country
TTITLE0=Hello Stranger
TTITLE1=Everytime You Leave - With Don Everly
TTITLE2=Beneath Still Waters
TTITLE3=Blue Kentucky Girl
TTITLE4=To Daddy
TTITLE5=Evangeline - With The Band
TTITLE6=Save The Last Dance For Me
TTITLE7=Mister Sandman - With Dolly Parton and Linda Ronstadt
TTITLE8=And I Love You So
TTITLE9=If I Needed You - With Don Williams
TTITLE10=Roses In The Snow
TTITLE11=The Boxer
TTITLE12=Wayfaring Stranger
TTITLE13=Millworker
TTITLE14=Dimming Of The Day
TTITLE15=Heaven Ain't Ready For You Yet
TTITLE16=Juanita
TTITLE17=Born To Run
TTITLE18=The Price You Pay
TTITLE19=Sweet Chariot
TTITLE20=That Lovin' You Feelin' Again - With Roy Orbison
EXTD=Reprise Archives\n9 45308-2
EXTT0=
EXTT1=
EXTT2=
EXTT3=
EXTT4=
EXTT5=
EXTT6=
EXTT7=
EXTT8=
EXTT9=
EXTT10=
EXTT11=
EXTT12=
EXTT13=
EXTT14=
EXTT15=
EXTT16=
EXTT17=
EXTT18=
EXTT19=
EXTT20=
PLAYORDER=
